<svg width="57" height="58" viewBox="0 0 57 58" fill="none" xmlns="http://www.w3.org/2000/svg">
<path d="M4.70619 16.0736C4.70619 14.8568 3.74077 13.8704 2.54986 13.8704C1.35895 13.8704 0.393524 14.8568 0.393524 16.0736C0.393524 17.2904 1.35895 18.2769 2.54986 18.2769C3.74077 18.2769 4.70619 17.2904 4.70619 16.0736Z" fill="#E66868"/>
<path d="M4.70619 2.85418C4.70619 1.63736 3.74077 0.650936 2.54986 0.650936C1.35895 0.650936 0.393524 1.63736 0.393524 2.85418C0.393524 4.07099 1.35895 5.05742 2.54986 5.05742C3.74077 5.05742 4.70619 4.07099 4.70619 2.85418Z" fill="#E66868"/>
<path d="M17.6442 42.5125C17.6442 41.2957 16.6788 40.3093 15.4879 40.3093C14.297 40.3093 13.3315 41.2957 13.3315 42.5125C13.3315 43.7293 14.297 44.7157 15.4879 44.7157C16.6788 44.7157 17.6442 43.7293 17.6442 42.5125Z" fill="#E66868"/>
<path d="M17.6442 29.2931C17.6442 28.0762 16.6788 27.0898 15.4879 27.0898C14.297 27.0898 13.3315 28.0762 13.3315 29.2931C13.3315 30.5099 14.297 31.4963 15.4879 31.4963C16.6788 31.4963 17.6442 30.5099 17.6442 29.2931Z" fill="#E66868"/>
<path d="M17.6442 16.0736C17.6442 14.8568 16.6788 13.8704 15.4879 13.8704C14.297 13.8704 13.3315 14.8568 13.3315 16.0736C13.3315 17.2904 14.297 18.2769 15.4879 18.2769C16.6788 18.2769 17.6442 17.2904 17.6442 16.0736Z" fill="#E66868"/>
<path d="M17.6442 2.85418C17.6442 1.63736 16.6788 0.650936 15.4879 0.650936C14.297 0.650936 13.3315 1.63736 13.3315 2.85418C13.3315 4.07099 14.297 5.05742 15.4879 5.05742C16.6788 5.05742 17.6442 4.07099 17.6442 2.85418Z" fill="#E66868"/>
<path d="M30.5822 42.5125C30.5822 41.2957 29.6168 40.3093 28.4259 40.3093C27.235 40.3093 26.2695 41.2957 26.2695 42.5125C26.2695 43.7293 27.235 44.7157 28.4259 44.7157C29.6168 44.7157 30.5822 43.7293 30.5822 42.5125Z" fill="#E66868"/>
<path d="M30.5822 29.2931C30.5822 28.0762 29.6168 27.0898 28.4259 27.0898C27.235 27.0898 26.2695 28.0762 26.2695 29.2931C26.2695 30.5099 27.235 31.4963 28.4259 31.4963C29.6168 31.4963 30.5822 30.5099 30.5822 29.2931Z" fill="#E66868"/>
<path d="M30.5822 16.0736C30.5822 14.8568 29.6168 13.8704 28.4259 13.8704C27.235 13.8704 26.2695 14.8568 26.2695 16.0736C26.2695 17.2904 27.235 18.2769 28.4259 18.2769C29.6168 18.2769 30.5822 17.2904 30.5822 16.0736Z" fill="#E66868"/>
<path d="M30.5822 2.85418C30.5822 1.63736 29.6168 0.650936 28.4259 0.650936C27.235 0.650936 26.2695 1.63736 26.2695 2.85418C26.2695 4.07099 27.235 5.05742 28.4259 5.05742C29.6168 5.05742 30.5822 4.07099 30.5822 2.85418Z" fill="#E66868"/>
<path d="M43.5202 55.7319C43.5202 54.5151 42.5548 53.5287 41.3639 53.5287C40.173 53.5287 39.2075 54.5151 39.2075 55.7319C39.2075 56.9488 40.173 57.9352 41.3639 57.9352C42.5548 57.9352 43.5202 56.9488 43.5202 55.7319Z" fill="#E66868"/>
<path d="M43.5202 42.5125C43.5202 41.2957 42.5548 40.3093 41.3639 40.3093C40.173 40.3093 39.2075 41.2957 39.2075 42.5125C39.2075 43.7293 40.173 44.7157 41.3639 44.7157C42.5548 44.7157 43.5202 43.7293 43.5202 42.5125Z" fill="#E66868"/>
<path d="M43.5202 29.2931C43.5202 28.0762 42.5548 27.0898 41.3639 27.0898C40.173 27.0898 39.2075 28.0762 39.2075 29.2931C39.2075 30.5099 40.173 31.4963 41.3639 31.4963C42.5548 31.4963 43.5202 30.5099 43.5202 29.2931Z" fill="#E66868"/>
<path d="M43.5202 16.0736C43.5202 14.8568 42.5548 13.8704 41.3639 13.8704C40.173 13.8704 39.2075 14.8568 39.2075 16.0736C39.2075 17.2904 40.173 18.2769 41.3639 18.2769C42.5548 18.2769 43.5202 17.2904 43.5202 16.0736Z" fill="#E66868"/>
<path d="M43.5202 2.85418C43.5202 1.63736 42.5548 0.650936 41.3639 0.650936C40.173 0.650936 39.2075 1.63736 39.2075 2.85418C39.2075 4.07099 40.173 5.05742 41.3639 5.05742C42.5548 5.05742 43.5202 4.07099 43.5202 2.85418Z" fill="#E66868"/>
<path d="M56.4582 55.7319C56.4582 54.5151 55.4928 53.5287 54.3019 53.5287C53.111 53.5287 52.1455 54.5151 52.1455 55.7319C52.1455 56.9488 53.111 57.9352 54.3019 57.9352C55.4928 57.9352 56.4582 56.9488 56.4582 55.7319Z" fill="#E66868"/>
<path d="M56.4582 42.5125C56.4582 41.2957 55.4928 40.3093 54.3019 40.3093C53.111 40.3093 52.1455 41.2957 52.1455 42.5125C52.1455 43.7293 53.111 44.7157 54.3019 44.7157C55.4928 44.7157 56.4582 43.7293 56.4582 42.5125Z" fill="#E66868"/>
<path d="M56.4582 29.2931C56.4582 28.0762 55.4928 27.0898 54.3019 27.0898C53.111 27.0898 52.1455 28.0762 52.1455 29.2931C52.1455 30.5099 53.111 31.4963 54.3019 31.4963C55.4928 31.4963 56.4582 30.5099 56.4582 29.2931Z" fill="#E66868"/>
<path d="M56.4582 16.0736C56.4582 14.8568 55.4928 13.8704 54.3019 13.8704C53.111 13.8704 52.1455 14.8568 52.1455 16.0736C52.1455 17.2904 53.111 18.2769 54.3019 18.2769C55.4928 18.2769 56.4582 17.2904 56.4582 16.0736Z" fill="#E66868"/>
<path d="M56.4582 2.85418C56.4582 1.63736 55.4928 0.650936 54.3019 0.650936C53.111 0.650936 52.1455 1.63736 52.1455 2.85418C52.1455 4.07099 53.111 5.05742 54.3019 5.05742C55.4928 5.05742 56.4582 4.07099 56.4582 2.85418Z" fill="#E66868"/>
</svg>
