<svg width="20" height="25" viewBox="0 0 20 25" fill="none" xmlns="http://www.w3.org/2000/svg">
<path d="M10 0C4.75026 0 0 4.09069 0 10.4181C0 14.4585 3.06285 19.2109 9.17504 24.6859C9.40601 24.8885 9.70092 25 10.006 25C10.3111 25 10.606 24.8885 10.837 24.6859C16.9372 19.2109 20 14.4585 20 10.4181C20 4.09069 15.2497 0 10 0ZM10 12.7051C8.62457 12.7051 7.49963 11.5616 7.49963 10.1635C7.49963 8.76533 8.62457 7.62183 10 7.62183C11.3754 7.62183 12.5004 8.76533 12.5004 10.1635C12.5004 11.5616 11.3754 12.7051 10 12.7051Z" fill="url(#paint0_linear_8_27)"/>
<defs>
<linearGradient id="paint0_linear_8_27" x1="10" y1="0" x2="10" y2="25" gradientUnits="userSpaceOnUse">
<stop stop-color="white"/>
<stop offset="1" stop-color="white"/>
</linearGradient>
</defs>
</svg>
