<svg width="20" height="20" viewBox="0 0 20 20" fill="none" xmlns="http://www.w3.org/2000/svg">
<g clip-path="url(#clip0_6_10)">
<path d="M0.0331395 19.9962C0.106259 19.6603 0.176253 19.3366 0.247498 19.0132C0.564035 17.5755 0.882136 16.1381 1.19399 14.6992C1.20836 14.6323 1.18336 14.5454 1.14993 14.4817C0.556849 13.3427 0.173441 12.1378 0.0490757 10.8598C-0.144034 8.87211 0.229687 6.98851 1.19492 5.24052C2.45889 2.95132 4.33905 1.37113 6.81542 0.528697C8.64965 -0.0950038 10.5214 -0.163748 12.4019 0.305902C15.961 1.1949 18.7879 3.93031 19.6591 7.49253C20.5772 11.2463 19.5629 14.496 16.7812 17.1693C15.4244 18.4732 13.7874 19.286 11.9388 19.6435C9.77113 20.0628 7.68129 19.8003 5.68301 18.8535C5.55302 18.792 5.4374 18.7782 5.29742 18.8107C3.5638 19.2101 1.82894 19.6041 0.0943847 19.9994C0.0846979 20.0016 0.0737613 19.9984 0.0331395 19.9962ZM2.08704 17.9348C2.17672 17.9177 2.23141 17.9086 2.28546 17.8964C3.35069 17.6539 4.41686 17.4146 5.48053 17.1655C5.6552 17.1246 5.79519 17.1493 5.9508 17.2355C7.01384 17.8242 8.15563 18.1673 9.36647 18.2467C11.5382 18.3889 13.5208 17.8327 15.2129 16.4553C17.7849 14.3614 18.8267 11.6385 18.2577 8.3659C17.9049 6.33762 16.8362 4.68837 15.2304 3.41035C13.3743 1.93265 11.2466 1.36238 8.89463 1.6508C7.38881 1.83547 6.03017 2.40043 4.8337 3.33254C3.15602 4.639 2.10267 6.33699 1.70332 8.43089C1.50271 9.48206 1.51677 10.5323 1.74332 11.5794C1.94549 12.514 2.30484 13.3852 2.78511 14.2098C2.83011 14.2873 2.85823 14.3995 2.84042 14.4845C2.67512 15.2738 2.49732 16.0606 2.32421 16.848C2.24734 17.1977 2.17172 17.548 2.08735 17.9348H2.08704Z" fill="white"/>
<path d="M7.05539 5.55361C7.09694 5.55361 7.13913 5.55705 7.18038 5.55299C7.47848 5.52299 7.66534 5.66892 7.77658 5.93108C7.91876 6.26637 8.05906 6.60228 8.19842 6.93882C8.2981 7.17911 8.39122 7.42222 8.49559 7.66032C8.56121 7.81063 8.57339 7.95843 8.47777 8.09123C8.31466 8.31746 8.14968 8.54432 7.96469 8.75211C7.72846 9.01772 7.71565 9.07521 7.89876 9.37738C8.63214 10.5882 9.64706 11.4697 10.9598 12.0056C11.2066 12.1062 11.3076 12.0906 11.4785 11.8847C11.711 11.6044 11.9394 11.32 12.1662 11.0354C12.3065 10.8591 12.4053 10.8095 12.6118 10.901C13.1062 11.1194 13.5927 11.3566 14.0814 11.5881C14.2226 11.655 14.3589 11.7316 14.5014 11.7953C14.6539 11.8637 14.7179 11.9781 14.7145 12.1412C14.7007 12.8243 14.4676 13.3761 13.8567 13.7555C13.2099 14.1573 12.5312 14.2223 11.8163 14.0398C10.6685 13.7467 9.57613 13.3311 8.6312 12.5862C7.75971 11.8994 7.03851 11.0794 6.40794 10.1714C6.04078 9.64267 5.69799 9.10334 5.53394 8.4737C5.26584 7.44565 5.49457 6.54885 6.26232 5.79984C6.48574 5.58174 6.75728 5.52768 7.05507 5.55299L7.05539 5.55361Z" fill="white"/>
</g>
<defs>
<clipPath id="clip0_6_10">
<rect width="19.9884" height="20" fill="white"/>
</clipPath>
</defs>
</svg>
